#!OML:ASF E:/inclinewalkrobotboard/Project1/Captureday1/Session1/subject1.ASF
:FULLY-SPECIFIED
:DEGREES
201
root 0 0 0 -4.38485685147635 -4.3669550499511365 0.24474018681270326
lowerback 10.79461625849765 1.4211617804058256 -0.4847479853997947
upperback 0.5643337072904044 1.8562695807312783 0.5442093070142336
thorax -5.450177062660621 0.9331583924338225 0.5675931317922736
lowerneck -16.066699086377582 -3.079777691093026 -1.6594226707959803
upperneck 21.66503176472012 -4.014327738713679 0.7522326745751883
head 9.596568209183417 -1.9151345073312096 0.008700912155808427
rclavicle 1.2627025537805797E-15 -8.497953027442721E-16
rhumerus -30.936260776558882 -22.64085812230921 -76.18487718858658
rradius 26.787693261231617
rwrist 2.407282766003685
rhand -18.98812030381909 23.109706111500188
rfingers 7.125020000000021
rthumb 7.319295530865177 -6.810546479828844
lclavicle -2.2613001025470132E-15 -9.648201729901198E-16
lhumerus -35.67069957792588 1.5907481649307587 83.51281902291589
lradius 25.553229055522294
lwrist 5.301430823682409
lhand -27.106328680573213 24.280552004027854
lfingers 7.125020000000023
lthumb -0.5125269387296854 54.29115286701982
rfemur -8.8959358637841 2.418929427470265 27.62120470836348
rtibia 74.3422614819313
rfoot 11.979743678381201 -2.9740255751622393
rtoes 17.290705672415072
lfemur -15.97266385161343 -2.5318959819140505 -22.13458742829806
ltibia 28.552578915962794
lfoot -6.499004132419124 -1.6384420234602195
ltoes 6.616196495448399
202
root 0 0 0 -5.276277280813003 -3.7134055395260557 1.0809630126255727
lowerback 11.200071112736202 0.9131241116302661 -1.4795126086288415
upperback 0.730750403229837 1.0686582679370555 0.519262434455366
thorax -5.577789827275516 0.5658202644647995 1.2167762630984762
lowerneck -16.80350106366202 -2.891164426741762 -1.92402152935954
upperneck 21.063902495443642 -3.664140428524501 0.44705340673558935
head 9.48511542434812 -1.7912550286863844 -0.012058661111092772
rclavicle 5.137206687460055E-16 6.708595965872833E-17
rhumerus -31.651442011634398 -23.433797466968628 -76.15400682019697
rradius 25.951233827397076
rwrist 2.9880700623644723
rhand -18.880464477154064 22.87239021968612
rfingers 7.125020000000021
rthumb 7.423090918507675 -7.0544527534699775
lclavicle -2.7548222976728533E-15 4.406289717070312E-16
lhumerus -35.14522186246905 0.49092166297603557 83.64236130676139
lradius 26.47775284203009
lwrist 5.818143191963978
lhand -27.284179909713025 24.4018733314068
lfingers 7.125020000000026
lthumb -0.6828007731401096 54.410896472239415
rfemur -18.875748922207944 -0.4443004416894416 24.25445123269313
rtibia 80.23967336573807
rfoot 3.8212400458312574 -6.2398842243752375
rtoes 12.189199120505126
lfemur -7.967902519464761 -3.0198470537811506 -24.349152708255765
ltibia 28.073385095290604
lfoot -12.135377054522554 -0.058148798106023136
ltoes -1.2571797139382888
203
root 0 0 0 -5.104456395618097 -3.0547662992041085 1.352701349160529
lowerback 11.598188748312323 0.5217627767153084 -1.9163124317263762
upperback 0.9463579969677247 0.5077417836053938 0.6406983043552141
thorax -5.588968009793066 0.3056501320267407 1.6691418361315677
lowerneck -16.437046926506337 -2.7542554872751106 -2.0655533403393767
upperneck 20.21589922053999 -3.3808282920851624 0.3808794577182164
head 9.127658800863948 -1.6982549937361189 0.03986796059813397
rclavicle 9.312728737084147E-16 1.9583345145466068E-16
rhumerus -31.824435149823756 -23.526881478462407 -76.19464974510007
rradius 25.81233349869732
rwrist 3.0507358131230218
rhand -18.873719195322987 22.83908797915635
rfingers 7.1250200000000214
rthumb 7.429352434428759 -7.087826885069706
lclavicle -2.1381081754577313E-15 9.441587287072717E-16
lhumerus -33.74422678653052 -1.093376725836887 83.75484130023581
lradius 27.909470877486676
lwrist 6.378008638340718
lhand -27.434712219949855 24.241248848112622
lfingers 7.125020000000026
lthumb -0.829177983372916 54.23709340206615
rfemur -27.456356968244986 -0.6679550324346075 21.66314610526322
rtibia 64.4258600466361
rfoot -6.02985570114827 -7.322473854586068
rtoes 6.281758271042845
lfemur -2.740657689524838 -3.3836611757813833 -25.791576953945384
ltibia 27.238698190253476
lfoot -15.398805756698449 0.9396350695417959
ltoes -4.159788019906202
204
root 0 0 0 -4.273290326497225 -2.0872625127901876 1.9013331450599984
lowerback 12.024256836389442 -0.10316527066376535 -2.6562379762922674
upperback 1.0765415242343324 -0.39385877905918054 0.8992371429348767
thorax -5.636961880997299 -0.11249277792437218 2.4902082286288945
lowerneck -16.466375312281464 -2.6769742757278383 -2.2385526667571516
upperneck 18.81454244629818 -3.1542087459923436 0.3627979169689406
head 8.663313699471727 -1.635518249129839 0.10172930794356844
rclavicle 1.6578564485608143E-15 -3.442484316467496E-16
rhumerus -31.585198931762847 -23.04403527289287 -76.27900386694495
rradius 26.267113327837272
rwrist 2.7371338217225896
rhand -18.89463096278541 22.919774040369457
rfingers 7.125020000000022
rthumb 7.408348475916349 -6.997360229455225
lclavicle -8.337725486200691E-16 1.1664469671863658E-16
lhumerus -30.242096699989403 -3.2226764962597527 83.40088277539837
lradius 29.779656072726983
lwrist 6.82870063539559
lhand -27.6663123346192 24.414725350788196
lfingers 7.125020000000016
lthumb -1.0530081126776496 54.403260626049914
rfemur -29.486997309080007 -0.3444406574879819 21.089739913162546
rtibia 60.1405456918204
rfoot -7.25241065365168 -8.296998499349373
rtoes 4.043124748497055
lfemur 1.0626569638602392 -3.3860583927687493 -27.000351181370768
ltibia 25.059300215647546
lfoot -16.601243970863965 1.0268805682951978
ltoes -2.125910550546976
205
root 0 0 0 -2.1876716166921564 -0.34243147365677684 3.1281861169566363
lowerback 10.794044262241831 -1.2096796140020265 -4.30698986131397
upperback 0.6818640371500573 -2.044173632666025 1.209230452895095
thorax -5.187711264302218 -0.8914538840789152 3.9823636714359876
lowerneck -17.694739992173318 -2.505222930142876 -2.375519422412984
upperneck 17.876986202855214 -2.833471793786967 0.18235945998434655
head 8.532642345269343 -1.4961562391602665 0.09372891292215349
rclavicle 2.6767413862429824E-15 -8.395426026491509E-16
rhumerus -31.54897035834302 -23.149951170375658 -76.12354471236002
rradius 26.316506733602196
rwrist 2.743829130325568
rhand -18.884236117433982 22.93810737470364
rfingers 7.125020000000023
rthumb 7.418403298361407 -6.9829749108210954
lclavicle 1.5249651362002157E-15 -5.31840205945482E-16
lhumerus -25.293881746120668 -5.470630385532931 82.40362791173489
lradius 31.74227595031359
lwrist 7.285895748371962
lhand -28.06784266198931 24.925812520888957
lfingers 7.125020000000001
lthumb -1.4425907510659268 54.9155301240116
rfemur -36.95062954719196 2.4135581760512936 18.552855038620375
rtibia 44.41993743759982
rfoot -7.156092837566569 -13.751861336095669
rtoes -2.2310245984518433
lfemur 7.955144033811606 -2.930914828044732 -29.306477801196884
ltibia 20.40863046547468
lfoot -18.003408308406037 0.35351098665971215
ltoes 1.9139733629568312
